# xmcd CD database file
# Copyright (C) 1995-1998 Ti Kan
#
# Track frame offsets:
#	150
#	16485
#	35325
#	52532
#	71977
#	91757
#	115227
#	136130
#	157605
#	174695
#	190760
#	208785
#	229445
#	245162
#
# Disc length: 3452 seconds
#
# Revision: 1
# Processed by: cddbd v1.4b42PL1 Copyright (c) Steve Scherf et al.
# Submitted via: CDex 1.30
#
DISCID=b80d7a0e
DTITLE=Rudy Blueshoes - Rule of Thumb
DYEAR=2001
DGENRE=Blues
TTITLE0=Big Toy Box
TTITLE1=Can't Judge a Book By the Cover
TTITLE2=Let Me Be Your Toy Boy
TTITLE3=Beat Me Daddy, Eight To The Bar
TTITLE4=The Kitty Kat Song
TTITLE5=Suwanne River Boogie
TTITLE6=Spin On A Dime
TTITLE7=Tipitina
TTITLE8=Mess Around
TTITLE9=Red Hot Mama
TTITLE10=I'm Gonna Keep What I've Got
TTITLE11=Let It Rock
TTITLE12=My Girl Ran Off With The Garbage Man
TTITLE13=Bumble Boogie
EXTD=\nYEAR: 2001  ID3G:   0
EXTT0=
EXTT1=
EXTT2=
EXTT3=
EXTT4=
EXTT5=
EXTT6=
EXTT7=
EXTT8=
EXTT9=
EXTT10=
EXTT11=
EXTT12=
EXTT13=
PLAYORDER=
